<svg width="29" height="30" viewBox="0 0 29 30" fill="none" xmlns="http://www.w3.org/2000/svg">
<path d="M1.12731 4.17699L2.75318 2.55112L2.75318 26.3098L2.75318 26.4348L2.87818 26.4348L3.6681 26.4348L3.7931 26.4348L3.7931 26.3098L3.79309 2.55112L5.41897 4.17699C5.62202 4.38005 5.95124 4.38005 6.1543 4.17699C6.35735 3.97393 6.35735 3.64472 6.1543 3.44166L3.6408 0.928163C3.43775 0.725109 3.10853 0.725109 2.90547 0.928163L0.391976 3.44166C0.18892 3.64472 0.18892 3.97393 0.391976 4.17699C0.595033 4.38005 0.924251 4.38005 1.12731 4.17699Z" fill="white" stroke="white" stroke-width="0.25"/>
<path d="M25.1262 24.1635L26.7603 25.7891L2.8772 25.7891H2.7522V25.9141V26.704V26.829H2.8772L26.7603 26.829L25.1262 28.4547C24.922 28.6578 24.922 28.9874 25.1262 29.1905C25.33 29.3932 25.6602 29.3932 25.864 29.1905L28.3906 26.677C28.5947 26.4739 28.5947 26.1443 28.3906 25.9412L25.864 23.4277C25.6602 23.2249 25.33 23.2249 25.1262 23.4277C24.922 23.6308 24.922 23.9604 25.1262 24.1635Z" fill="white" stroke="white" stroke-width="0.25"/>
</svg>
